# xmcd CD database file
#
# Track frame offsets:
#	150
#	16229
#	31157
#	47824
#	64397
#	80779
#	95856
#	113455
#	129617
#	143887
#	158275
#
# Disc length: 2372 seconds
#
# Revision: 2
# Processed by: cddbd v1.5.2PL0 Copyright (c) Steve Scherf et al.
# Submitted via: CDex 1.70beta2
#
DISCID=8d09420b
DTITLE=Various Artist - 繚??簽?疇 - 罈??禱?繳瞿穡?????瞿?繩瞿穢
DYEAR=2007
DGENRE=Pop
TTITLE0=繒矇
TTITLE1=?繪?癒?罈翹職?簿
TTITLE2=?簿疆聶
TTITLE3=繚癟??繕??癟糧聶
TTITLE4=?矇繙??簿
TTITLE5=?穫?簧?繩糧瞻
TTITLE6=矇?矇簫?繩
TTITLE7=聶繭?簞翹??矇
TTITLE8=?瓊??繙??瓣繕??癒??
TTITLE9=?疆糧穠
TTITLE10=?禮?簿?簧?璽瞿穡繞?糧穠簞疆瞿穢
EXTD=YEAR: 2007
EXTT0=
EXTT1=
EXTT2=
EXTT3=
EXTT4=
EXTT5=
EXTT6=
EXTT7=
EXTT8=
EXTT9=
EXTT10=
PLAYORDER=
